<?xml version="1.0" encoding="iso-8859-1"?>
<!-- Generator: Adobe Illustrator 19.0.0, SVG Export Plug-In . SVG Version: 6.00 Build 0)  -->
<svg version="1.1" id="Layer_1" xmlns="http://www.w3.org/2000/svg" xmlns:xlink="http://www.w3.org/1999/xlink" x="0px" y="0px"
	 viewBox="0 0 505 505" style="enable-background:new 0 0 505 505;" xml:space="preserve">
<circle style="fill:#FFD05B;" cx="252.5" cy="252.5" r="252.5"/>
<path style="fill:#FFFFFF;" d="M319.7,442c-1.8,0-3.6-0.4-5.3-1.4l-159.3-87.8c-3.5-2-5.7-5.7-5.7-9.8c0.1-4.1,2.3-7.7,5.9-9.6
	l162.8-84.5l-119.5-62.3c-5.4-2.8-7.5-9.4-4.7-14.8c2.8-5.4,9.4-7.5,14.8-4.7l138.2,72.1c3.6,1.9,5.9,5.7,5.9,9.8
	c0,4.1-2.3,7.9-5.9,9.7l-163.3,84.8l141.3,77.9c5.3,2.9,7.3,9.6,4.3,14.9C327.3,440,323.5,442,319.7,442z"/>
<g>
	<path style="fill:#FF7058;" d="M206.3,63c-23.9,0-43.3,19.3-43.3,43.3c0,23.9,43.3,70.8,43.3,70.8s43.3-46.9,43.3-70.8
		C249.6,82.3,230.2,63,206.3,63z M206.3,125.4c-10.6,0-19.2-8.6-19.2-19.2S195.7,87,206.3,87c10.6,0,19.2,8.6,19.2,19.2
		S216.9,125.4,206.3,125.4z"/>
	<path style="fill:#FF7058;" d="M341.9,116.7c-27.6,0-50.1,22.4-50.1,50.1s50.1,82,50.1,82s50.1-54.3,50.1-82
		S369.6,116.7,341.9,116.7z M341.9,189c-12.3,0-22.2-9.9-22.2-22.2s9.9-22.2,22.2-22.2c12.3,0,22.2,9.9,22.2,22.2
		S354.2,189,341.9,189z"/>
	<path style="fill:#FF7058;" d="M163,214c-27.5,0-49.8,22.3-49.8,49.8s49.8,81.5,49.8,81.5s49.8-54,49.8-81.5
		C212.9,236.2,190.6,214,163,214z M163,285.8c-12.2,0-22.1-9.9-22.1-22.1c0-12.2,9.9-22.1,22.1-22.1c12.2,0,22.1,9.9,22.1,22.1
		C185.1,276,175.2,285.8,163,285.8z"/>
	<path style="fill:#FF7058;" d="M320.3,292.3c-29,0-52.6,23.5-52.6,52.6s52.6,86.1,52.6,86.1s52.6-57,52.6-86.1
		C372.9,315.9,349.4,292.3,320.3,292.3z M320.3,368.3c-12.9,0-23.3-10.4-23.3-23.3s10.4-23.3,23.3-23.3s23.3,10.4,23.3,23.3
		C343.6,357.8,333.2,368.3,320.3,368.3z"/>
</g>
<g>
</g>
<g>
</g>
<g>
</g>
<g>
</g>
<g>
</g>
<g>
</g>
<g>
</g>
<g>
</g>
<g>
</g>
<g>
</g>
<g>
</g>
<g>
</g>
<g>
</g>
<g>
</g>
<g>
</g>
</svg>
